<svg height="56" viewBox="0 0 40 56" width="40" xmlns="http://www.w3.org/2000/svg"><path d="m0 0h40v56h-40z" fill="none"/><path d="m36.224 30.1338-2.828-2.0657 2.8124-2.0378c1.3647-.9883 2.1812-2.6123 2.1846-4.3428.0034-1.7314-.8071-3.3594-2.1689-4.3545l-11.3198-8.2676c-2.9414-2.1465-6.8965-2.1523-9.8418-.0098l-11.2837 8.209c-1.3599.9893-2.1738 2.6104-2.1772 4.3379-.0029 1.7275.8052 3.3525 2.1616 4.3467l2.8247 2.0715-2.8096 2.0437c-1.3594.9893-2.1733 2.6113-2.1768 4.3389-.0029 1.7266.8052 3.3525 2.1616 4.3467l11.2694 8.2637c1.4761 1.083 3.2085 1.624 4.9414 1.624 1.7163 0 3.4326-.5312 4.8999-1.5947l11.3345-8.2119c1.3647-.9893 2.1816-2.6133 2.1846-4.3438.0034-1.7314-.8076-3.3584-2.1689-4.3535zm-1.3066 6.916-11.3345 8.2119c-2.1719 1.5732-5.0854 1.5635-7.2495-.0215l-11.2694-8.2637c-.8042-.5898-1.2642-1.5264-1.2622-2.5693s.4653-1.9775 1.271-2.5635l3.3774-2.457 6.5824 4.8271c1.4756 1.082 3.208 1.624 4.9409 1.624 1.7163 0 3.4326-.5312 4.9004-1.5947l6.649-4.8179 3.4032 2.4858c.8071.5889 1.269 1.5264 1.2671 2.5723-.002 1.0449-.4673 1.9805-1.2759 2.5664zm-31.1156-15.4434c.002-1.042.4653-1.9766 1.271-2.5625l11.2836-8.209c1.0835-.7881 2.3516-1.1816 3.6201-1.1816 1.2725 0 2.5449.3965 3.6299 1.1895l11.3198 8.2666c.8071.5908 1.269 1.5283 1.2671 2.5742-.0024 1.0439-.4673 1.9795-1.2759 2.5654l-3.3885 2.4553-.9364.6785-.9366.6787-6.0729 4.4004c-2.1729 1.5732-5.0854 1.5635-7.2495-.0215l-6.016-4.4119-.9312-.6829-.9314-.6831-3.3909-2.4868c-.8042-.5898-1.2642-1.5264-1.2622-2.5693z" fill="#06c"/></svg>