<svg height="56" viewBox="0 0 43 56" width="43" xmlns="http://www.w3.org/2000/svg"><path d="m0 0h43v56h-43z" fill="none"/><path d="m29 36.1055v-2.169a11.382 11.382 0 0 1 -2.5762.8435 13.5435 13.5435 0 0 0 2.5762-2.1369v-3.2931a11.5216 11.5216 0 0 1 -7.136 5.2225 13.4918 13.4918 0 0 0 -.1909-22.2841c.0684-.0155.134-.0381.2029-.0524a11.5253 11.5253 0 0 1 8.3711 8.096 4.5039 4.5039 0 0 1 1.8322-.9038 13.5186 13.5186 0 0 0 -5.1926-7.0982 11.5341 11.5341 0 0 1 7.82 6.5156l1.9933-.4325a13.3837 13.3837 0 0 0 -14.7219-8.2149 13.4478 13.4478 0 0 0 -5.6035 0 13.4934 13.4934 0 1 0 .5808 26.5069 12.5562 12.5562 0 0 0 4.4421 0 13.3718 13.3718 0 0 0 7.6028-.6zm-3.3469-12.6055a11.5023 11.5023 0 0 1 -6.4768 10.3289 11.4744 11.4744 0 0 1 0-20.658 11.503 11.503 0 0 1 6.4768 10.3291zm-9.1646 11.073a11.4851 11.4851 0 0 1 -.0122-22.3367c.0689.0143.1345.0369.2029.0524a13.4919 13.4919 0 0 0 -.1907 22.2843zm-13.8354-11.073a11.5112 11.5112 0 0 1 8.8122-11.17 13.48 13.48 0 0 0 .4632 22.45 11.5165 11.5165 0 0 1 -9.2754-11.28zm40.3469-2.8571v6.62a1.0244 1.0244 0 0 1 -.8589 1.0432l-7.7344 1.7051c-1.0232.23-1.4067.5244-1.4067 1.6079v10.097c0 5.1262-3.6511 6.9987-6.2651 6.9987-2.8833 0-4.89-1.8437-4.89-4.4665 0-2.665 1.6575-4.3562 5.1387-5.1021l2.9011-.62c.9-.1914 1.1155-.855 1.1155-1.8836v-13.6937c0-.8591.717-1.4108 1.6726-1.6144l8.8242-1.9169a1.4311 1.4311 0 0 1 .2984-.0321 1.1943 1.1943 0 0 1 1.2046 1.2574z" fill="#06c"/></svg>