<svg height="56" viewBox="0 0 40 56" width="40" xmlns="http://www.w3.org/2000/svg"><path d="m0 0h40v56h-40z" fill="none"/><path d="m12.7666 5.0117c-4.1277 2.4705-6.9055 6.9712-6.9055 12.1193 0 5.6068 2.7009 10.2821 7.1389 12.5306v16.3384c0 1.5391.8831 2.3721 1.4106 2.8699.072.0679.1475.1387.2239.2151l.4348.4282-1.0469 1.0542c-.3027.2886-.6597.4326-1.0164.4326-.3623 0-.7241-.1484-1.0281-.4451l-2.9297-2.8845c-.5532-.553-1.0483-.8616-1.0483-1.6704v-17.6423c-4.4998-1.6816-7-6.0823-7-11.2267 0-6.6213 5.1704-11.9935 11.7666-12.1193zm-4.7666 12.1193c0 5.1444 2.5003 9.545 7 11.2267v17.6423c0 .8088.4951 1.1174 1.0483 1.6704l2.9297 2.8845c.304.2966.6658.4451 1.0281.4451.3567 0 .7136-.144 1.0164-.4326l1.0469-1.0542-.4348-.4282c-.0764-.0764-.1519-.1472-.2239-.2151-.5276-.4978-1.4106-1.3308-1.4106-2.8699v-16.3384c-4.438-2.2485-7.1389-6.9238-7.1389-12.5306 0-5.1481 2.7778-9.6488 6.9055-12.1193-6.5962.1257-11.7666 5.4979-11.7666 12.1193zm26.9778 15.8028c.6172.6165.624 1.6177 0 2.2271l-4.2393 4.1914v.2793l2.8923 2.9895c.6184.6223.635 1.6934 0 2.2986l-5.6084 5.6477c-.3027.2886-.6597.4326-1.0164.4326-.3623 0-.7241-.1484-1.0281-.4451l-2.9297-2.8845c-.5532-.553-1.0483-.8616-1.0483-1.6704v-17.6423c-4.4998-1.6816-7-6.2133-7-11.3577 0-6.7002 5.2952-12 12.0003-12 .2561 0 .5154.0079.7751.024 6.145.3816 11.2246 5.3518 11.2246 11.976 0 5.6247-3.3908 10.1445-8.2749 11.6145v.0371l4.2527 4.2822zm-11.3778-19.4338c0 1.873 1.526 3.5 3.4003 3.5s3.3997-1.627 3.3997-3.5-1.5255-3.5-3.3997-3.5-3.4003 1.627-3.4003 3.5z" fill="#1d1d1f"/></svg>