<svg height="40" viewBox="0 0 40 40" width="40" xmlns="http://www.w3.org/2000/svg"><path d="m39.9841514 110.131996c.1007949 1.786986-.3023846 3.522298-.5539948 5.273013-.111352.774617-.1545857 1.565631-.3468752 2.319877-.2073711.813373-.5600275 1.589729-.8365222 2.386706-.5527381 1.592711-1.2698648 3.10319-2.4200828 4.362751-.962453 1.054602-1.9334521 2.113428-3.0017272 3.058223-.6731389.595248-1.5149396 1.015847-2.3135066 1.458059-1.14318.633259-2.3346209 1.18205-3.469506 1.828227-.9126839.519972-1.9030377.561709-2.8996755.651642-.9287708.083722-1.8565363.179618-2.7820395.291662-2.3479428.284208-4.6672307.478981-6.9656559-.419854-1.2834382-.501837-2.5309321-1.048888-3.7485142-1.684383-.75307109-.392774-1.59713404-.626302-2.32205291-1.059323-2.03424701-1.216084-3.67612289-2.84606-4.84443873-4.90061-1.54359458-2.71439-2.63248103-5.612125-3.16536175-8.675566-.37904912-2.179512-.46501384-4.424611.02211957-6.587229.64146774-2.848545 1.79294254-5.486915 3.65375196-7.840331 1.4475755-1.8302134 3.07889431-3.4691329 4.68708811-5.1413426.04298236-.0447181.08872967-.088691.13950415-.1239686 2.5676305-1.7884768 5.2657161-3.2758516 8.517294-3.3223087 1.3311963-.018881 2.6799878-.0136639 3.9915782.1776303 1.2266311.1788725 2.4238532.5875466 3.6165508.9507572 2.3904225.7281602 4.5737253 1.8712053 6.6057101 3.3083964.7281865.5152522 1.5071476.962682 2.2215094 1.4950762 1.1416718.8503898 2.1207144 1.8662367 2.8438738 3.0927558.8898102 1.509982 1.814308 3.005555 2.5970394 4.569448.6243753 1.248381.7837368 2.639612.7739338 4.035563-.0012568.16496 0 .330417 0 .495129m-32.52220251-8.516611c-.25630866.332316-.50607754.624178-.72038076.939121-.62681174.921252-1.34568332 1.800561-1.83465684 2.789567-.8516792 1.723625-1.42390903 3.538581-1.44252221 5.503936-.01584637 1.718413.01861318 3.421687.51890554 5.078303.59612514 1.974537 1.30594165 3.909117 2.32413344 5.718116.93644467 1.663565 2.23785878 3.006727 3.97794054 3.810093 1.7327873.800139 3.353644 1.857395 5.2300548 2.339364.6383821.164049 1.3014141.38642 1.9428145.357383 1.516472-.069243 3.0266556-.275979 4.5401092-.420421.2286404-.02184.3199456-.09282.3083753-.345718-.0387356-.844067-.0772196-1.689872-.0530728-2.532947.0150918-.531109-.1878926-.909835-.5787696-1.230735-.1929232-.15834-.3949014-.309731-.5666961-.488422-.5576411-.580746-1.1550239-1.121039-1.4716997-1.899586-.7374848-1.812971-.5968797-3.580772.1592182-5.345596.4608023-1.076117.4532564-1.095476-.6698233-1.475691-.9500272-.321644-1.6724202-.827935-1.85327-1.884198-.0218831-.129552-.1768253-.257862-.3005779-.34547-.1843711-.130792-.429864-.190108-.5875731-.342491-.2683821-.258606-.5697145-.363339-.9316656-.440772-.845391-.180428-1.619599-.52019-2.24792-1.149083-.2585724-.258854-.5782665-.472787-.9012305-.653216-1.0657309-.594396-1.8266079-1.385849-2.1053027-2.620059-.2203399-.977837-.57776345-1.925397-.87884437-2.885365-.00855201-.0273-.06263087-.040702-.22562205-.139478.14135963.94334.25127806 1.795349.40068664 2.640658.12098574.683245-.07923182 1.152309-.6137322 1.301467-.49853166.138982-.9553094-.134267-1.21161805-.728415-.04049626-.094309-.08552006-.1911-.10061184-.290869-.11997961-.794183-.31617269-1.588118-.32749153-2.384038-.01307953-.934902.13632904-1.872038.22084299-2.875438m28.69189731 8.585579c-.0449371-.005425-.0898742-.010604-.1345616-.015537 0-.51246.0561713-1.032566-.014979-1.534915-.0793889-.56055-.1969742-1.140583-.4358896-1.648851-.4608546-.980285-.9923603-1.931715-1.5430891-2.867363-.8053722-1.369192-1.7243353-2.662428-3.0557208-3.591664-.7774113-.5427937-1.5982618-1.0256608-2.4113731-1.5169128-.670561-.4051843-1.3551024-.7874336-2.040892-1.1674633-.1133413-.0628862-.2628819-.0611599-.3959455-.0890271.0164769.1154146.0496804.2313224.0461853.3464905-.0087378.2823712-.1540343.6616611-.0217196.8209728.1587777.1903848.5662071.1578319.8353302.2848373.4730875.2239241.6872876.6673333.5939183 1.1058106-.0851308.398772-.4124224.741563-.8293386.690021-.5522267-.068065-1.007589.145255-1.498152.292236-.3340322.100125-.6880365.194084-1.0318051.190878-.9559113-.009618-1.7068597.435024-2.4121221.988176-.0986119.07719-.1502895.28903-.1305671.425653.1375574.952664-.2928399 1.631341-1.0547729 2.131225-.2708707.177314-.2858497.327255-.1662672.596062.1238266.277439.2229378.577813.2631315.877201.0768924.578059-.183493.970173-.6670658 1.094959-.4733372.122073-.8785198-.116401-1.1151883-.65081-.1904833-.430832-.3767225-.86413-.5856798-1.286084-.0641602-.129472-.1952267-.311225-.2990812-.313445-.1165867-.002219-.2691231.150434-.3505092.271767-.4338923.646618-.9541638.800258-1.6347107.416775-.2459057-.138596-.4336428-.374851-.6628218-.546493-.2027161-.151667-.4730875-.31665-.6286197.006412-.327042.680157-.6336127 1.373878-.8827638 2.084615-.1375574.392114.0674056.694461.4770819.875721.316307.140322.609147.342298.8917512.545013.1782504.127992.3367784.447355.4713399.429846.1864889-.023675.3455162-.279659.5102854-.442423.4191631-.414802.9846212-.541807 1.4135206-.313444.4386357.234035.6021567.694954.4718392 1.331953-.0084881.039952-.0419413.089521-.0279608.117141.0619133.124293.112093.319117.2114538.350683.7359694.233049 1.0577688.771651 1.1144394 1.474496.0297084.370412.2029658.546493.5245155.664621.5035448.185206.9956057.401978 1.503145.575593.1265727.04365.3090672.007892.4381364-.051049.4106749-.187918.7931393-.446122 1.2165464-.592609.2271818-.07867.5452364-.051296.7724183.044143.9277009.390141 1.8925996.562523 2.8909515.630588.2728679.018743.6595764.097659.7809065.284098.388456.597788.8900036.969433 1.5837821 1.113208.2728678.056228.5627119.219979.8111141.169916.7774113-.155859 1.283203.169423 1.6719087.773624.1547832.24094.3158077.486319.4201616.750195.2898441.733425.8378267 1.197796 1.52811 1.539108 1.0253142.506542 1.3628415.383975 1.5817849-.702846.2134511-1.06068.3555022-2.136157.5085379-3.207934.1782503-1.250079.3335329-2.50361.4993008-3.755168m-16.9064789-14.7394255c-1.0683647.0064832-1.4056596.4211625-1.0105653 1.0083962.3003456.4463475.7669634.8737439 1.2657799 1.101406.8947027.4084454 1.199535.1927523 1.4655705-.7228834.0712595-.244369.2219601-.4952213.4093462-.6755058.1945121-.1877651.2531032-.2845153-.0551601-.3428647-.7904526-.1493643-1.5843363-.2822711-2.0749712-.3685483m6.1372481 1.6706659c-.8120674-.3117057-1.5036294-.5850022-2.2008202-.8393895-.1540216-.0558411-.3269761-.043432-.4914875-.0620457.0486115.197069.0578221.4275244.1560684.5826386.0977346.1536369.2732476.2812738.4352005.3323876.6483235.2047508 1.3030432.4213197 2.1010388-.013591" fill="#00d959" fill-rule="evenodd" transform="translate(0 -92)"/></svg>