<svg height="56" viewBox="0 0 45 56" width="45" xmlns="http://www.w3.org/2000/svg"><path d="m0 0h45v56h-45z" fill="none"/><path d="m44.2458 25.674a18.1722 18.1722 0 0 0 -2.162-3.131 27.3642 27.3642 0 0 0 -3.4022-3.37 28.5161 28.5161 0 0 0 -4.5-3.0778 25.8159 25.8159 0 0 0 -5.4553-2.2464 22.37 22.37 0 0 0 -6.2179-.8488 22.1053 22.1053 0 0 0 -6.1928.8491 26.1653 26.1653 0 0 0 -5.4385 2.2464 28.6757 28.6757 0 0 0 -4.5171 3.0778 28.0578 28.0578 0 0 0 -3.4274 3.37 17.7349 17.7349 0 0 0 -2.1784 3.1307 5.4173 5.4173 0 0 0 -.7542 2.326 5.4177 5.4177 0 0 0 .7542 2.326 17.96 17.96 0 0 0 2.17 3.131 27.8584 27.8584 0 0 0 3.4106 3.37 28.3481 28.3481 0 0 0 4.5084 3.0778 26.11 26.11 0 0 0 5.4469 2.2464 22.2544 22.2544 0 0 0 6.2183.8488 22.4052 22.4052 0 0 0 6.243-.8491 25.8619 25.8619 0 0 0 5.4469-2.2464 28.52 28.52 0 0 0 4.5-3.0778 27.3654 27.3654 0 0 0 3.4023-3.37 17.778 17.778 0 0 0 2.1536-3.131 5.4614 5.4614 0 0 0 .7458-2.3257 5.4173 5.4173 0 0 0 -.7542-2.326zm-1.7679 3.733a15.9013 15.9013 0 0 1 -1.9137 2.7695 25.4929 25.4929 0 0 1 -3.1542 3.1207 26.6458 26.6458 0 0 1 -4.1855 2.8606 23.9873 23.9873 0 0 1 -5.0274 2.0716 20.5153 20.5153 0 0 1 -5.6887.7706 20.3646 20.3646 0 0 1 -5.6617-.77 24.2348 24.2348 0 0 1 -5.0315-2.0734 26.4752 26.4752 0 0 1 -4.1913-2.8592 26.0012 26.0012 0 0 1 -3.1667-3.1251 16.0737 16.0737 0 0 1 -1.9308-2.7732 3.6876 3.6876 0 0 1 -.5264-1.3991 3.6882 3.6882 0 0 1 .5264-1.399 15.8609 15.8609 0 0 1 1.9355-2.7686 26.1984 26.1984 0 0 1 3.184-3.1269 26.8157 26.8157 0 0 1 4.2029-2.8619 24.2844 24.2844 0 0 1 5.0244-2.0736 20.2123 20.2123 0 0 1 5.6352-.77 20.4787 20.4787 0 0 1 5.6646.771 23.9354 23.9354 0 0 1 5.0344 2.0712 26.6552 26.6552 0 0 1 4.1855 2.8606 25.4983 25.4983 0 0 1 3.1545 3.1206 16.29 16.29 0 0 1 1.9262 2.7777 3.6876 3.6876 0 0 1 .5264 1.3989 3.7272 3.7272 0 0 1 -.5221 1.407zm-19.9779-10.907a9.5 9.5 0 1 0 9.5 9.5 9.5 9.5 0 0 0 -9.5-9.5zm0 12.25a2.75 2.75 0 1 1 2.75-2.75 2.75 2.75 0 0 1 -2.75 2.75z" fill="#06c"/></svg>