<svg height="40" viewBox="0 0 40 40" width="40" xmlns="http://www.w3.org/2000/svg"><path d="m11.9069735 9.92279111c-1.7479418-2.76897942-4.65238199-5.18942089-8.09830416-5.90090208-.81662093 2.89722171-.15621701 6.93913757 1.57870664 9.77030577 1.52593061 2.5191705 4.3994089 5.2396637 7.80205472 5.8562808 1.2782352-3.1097877.4742805-6.9612726-1.2824572-9.72568449m-3.78474424 12.95282269c-3.17711632.8045886-6.37956513 2.8153574-8.12222926 5.8678753 2.50686088 1.6710146 6.56005911 2.2929018 9.79276617 1.5199346 2.87101543-.6703734 6.34965873-2.5588729 7.98817813-5.6001475-2.5663218-2.1748487-6.4830061-2.6017375-9.65871504-1.7876624m11.16670184 7.5975651c-.215678 3.2657866.7096615 6.9285972 3.0786011 9.5268211 2.3661248-1.8642564 4.2108226-5.5217968 4.4736472-8.8307992.2483991-2.933762-.4749842-6.8210845-2.8650342-9.3170659-2.8643304 1.7655274-4.4813876 5.3531494-4.6872141 8.621044m10.6864401-8.2577494c3.0437689 1.2139099 6.8183098 1.466881 10.0246288.0200269-1.0442615-2.8230872-3.9574977-5.7052009-7.0276546-6.9774347-2.7176132-1.1425861-6.6434453-1.6569606-9.7589895-.1581069.7962142 3.2657865 3.7136725 5.9100372 6.7620153 7.1155147m-4.5623109-12.70090562c2.0969671-2.51565698 3.5043276-6.0221174 3.1173035-9.51452388-3.0117515.11945857-6.6568151 1.99566084-8.8171135 4.5183448-1.9280839 2.22755101-3.6309901 5.7972542-3.1665611 9.2193909 3.3565548.2529711 6.7764408-1.7005279 8.8663711-4.22321182" fill="#00d959"/></svg>