<svg height="56" viewBox="0 0 40 56" width="40" xmlns="http://www.w3.org/2000/svg"><path d="m0 0h40v56h-40z" fill="none"/><path d="m26.625 23.75c0 4.004-2.9661 7.25-6.625 7.25s-6.625-3.246-6.625-7.25 2.9661-7.25 6.625-7.25 6.625 3.2459 6.625 7.25zm12.8846 4.25c0 10.7695-8.7305 19.5-19.5 19.5s-19.5-8.7305-19.5-19.5 8.7305-19.5 19.5-19.5 19.5 8.7304 19.5 19.5zm-2 0c0-9.6495-7.8505-17.5-17.5-17.5s-17.5 7.8505-17.5 17.5c0 4.6852 1.8611 8.9365 4.8698 12.0808 1.9793-3.491 6.4785-6.5808 12.6205-6.5808 6.1499 0 10.6525 3.0977 12.6277 6.5941 3.0161-3.1455 4.8819-7.4025 4.8819-12.0941z" fill="#1d1d1f"/></svg>