<svg height="40" viewBox="0 0 41 40" width="41" xmlns="http://www.w3.org/2000/svg"><g fill="none" fill-rule="evenodd"><path d="m0 0h41v39.2257176h-41z"/><path d="m26.6102726 12.5253952c-2.9138574-5.17302854-5.2685648-9.31885811-7.2637724-8.99562505-1.4739169.23877016-3.6807472 3.41262652-5.9804457 7.63219865m14.3230411 22.9498728c5.1756968-.2488407 9.2547736-.6770027 9.6971104-1.4261238.5025231-.8514511-2.0495694-5.2967991-5.1857279-10.5812538m-24.48934555.8819877c-2.48122806 5.7558227-4.26934312 10.6553213-4.13926309 11.0799099.11746033.3839814 4.39521658.4356337 9.90193794.3843063" stroke="#00d959" stroke-linecap="round" stroke-linejoin="round" stroke-width="6.772703"/><g fill="#00d959" fill-rule="nonzero" transform="translate(2.8268 7.1334)"><path d="m27.4309251.12669304c-1.2846212-.56297779-2.2553678.81766597-5.2261756 2.80709242-2.2129785 1.48199924-4.5217372 1.20457107-4.5217372 3.64944756 0 1.38064372 1.8703049 1.68698426 3.9273167 2.58813857 2.3420877 1.02589951 4.2026852 2.00047151 5.6183572.94468521.7435918-.55453154.8879095-2.56215002 1.1868993-4.83420237.3096682-2.35326665.6212779-4.45119549-.9846604-5.15516139z"/><path d="m24.6122389 20.6494369c-.6379056-.2162367-1.7775286.5091322-4.5562747 2.1981997-2.2820543 1.3872506-4.2210783.9199912-4.2007292 3.357922.0075226.883693 1.6177817 1.9284688 3.6662908 3.056371 2.2404248 1.2338153 4.2795078 2.1871308 5.7010546 1.1318177.7466775-.5542829 1.0048641-2.8744678 1.0446014-5.1596054.0332162-1.9006102.0071129-4.0207465-1.6549429-4.584705z" transform="matrix(-.52991926 .8480481 -.8480481 -.52991926 54.047347 21.501267)"/><path d="m10.29221 8.01740292c-.63860669-.21855395-1.27431872.79369665-3.98656837 2.51200368-2.2484868 1.4246543-4.2394056 1.3986722-4.188162 3.3432926.02335084.8835355 1.59897086 1.9801623 3.778634 2.84592 2.50468086.9949699 3.38827731 1.9380652 4.80586247.8877136.7445967-.5516769.5881126-2.559989.619633-4.8452853.0263818-1.9007417.6344858-4.1736482-1.0293991-4.74364458z" transform="matrix(-.5591929 -.82903757 .82903757 -.5591929 -.222391 25.935953)"/></g></g></svg>